HIERARCHY
ROOT hip
{
  OFFSET 0 0 0
  CHANNELS 6 Xposition Yposition Zposition Zrotation Yrotation Xrotation
  JOINT abdomen
  {
    OFFSET 0 20.6881 -0.73152
    CHANNELS 3 Zrotation Xrotation Yrotation
    JOINT chest
    {
      OFFSET 0 11.7043 -0.48768
      CHANNELS 3 Zrotation Xrotation Yrotation
      JOINT neck
      {
        OFFSET 0 22.1894 -2.19456
        CHANNELS 3 Zrotation Xrotation Yrotation
        JOINT head
        {
          OFFSET -0.24384 7.07133 1.2192
          CHANNELS 3 Zrotation Xrotation Yrotation
          JOINT leftEye
          {
            OFFSET 4.14528 8.04674 8.04672
            CHANNELS 3 Zrotation Xrotation Yrotation
            End Site
            {
              OFFSET 1 0 0
            }
          }
          JOINT rightEye
          {
            OFFSET -3.6576 8.04674 8.04672
            CHANNELS 3 Zrotation Xrotation Yrotation
            End Site
            {
              OFFSET 1 0 0
            }
          }
        }
      }
      JOINT rCollar
      {
        OFFSET -2.68224 19.2634 -4.8768
        CHANNELS 3 Zrotation Xrotation Yrotation
        JOINT rShldr
        {
          OFFSET -8.77824 -1.95073 1.46304
          CHANNELS 3 Zrotation Xrotation Yrotation
          JOINT rForeArm
          {
            OFFSET -28.1742 -1.7115 0.48768
            CHANNELS 3 Zrotation Xrotation Yrotation
            JOINT rHand
            {
              OFFSET -22.5879 0.773209 7.07136
              CHANNELS 3 Zrotation Xrotation Yrotation
              JOINT rThumb1
              {
                OFFSET -1.2192 -0.487915 3.41376
                CHANNELS 3 Zrotation Xrotation Yrotation
                JOINT rThumb2
                {
                  OFFSET -3.37035 -0.52449 3.41376
                  CHANNELS 3 Zrotation Xrotation Yrotation
                  End Site
                  {
                    OFFSET -1.78271 -1.18214 1.43049
                  }
                }
              }
              JOINT rIndex1
              {
                OFFSET -7.75947 0.938293 5.60832
                CHANNELS 3 Zrotation Xrotation Yrotation
                JOINT rIndex2
                {
                  OFFSET -2.54057 -0.884171 1.56538
                  CHANNELS 3 Zrotation Xrotation Yrotation
                  End Site
                  {
                    OFFSET -1.62519 -0.234802 1.16502
                  }
                }
              }
              JOINT rMid1
              {
                OFFSET -8.24714 1.18213 3.41376
                CHANNELS 3 Zrotation Xrotation Yrotation
                JOINT rMid2
                {
                  OFFSET -3.10165 -0.590103 1.0647
                  CHANNELS 3 Zrotation Xrotation Yrotation
                  End Site
                  {
                    OFFSET -2.48547 -0.328903 0.83742
                  }
                }
              }
              JOINT rRing1
              {
                OFFSET -8.82822 0.546677 1.51678
                CHANNELS 3 Zrotation Xrotation Yrotation
                JOINT rRing2
                {
                  OFFSET -2.60934 -0.819778 -0.0198488
                  CHANNELS 3 Zrotation Xrotation Yrotation
                  End Site
                  {
                    OFFSET -2.33842 -0.294052 0.168128
                  }
                }
              }
              JOINT rPinky1
              {
                OFFSET -8.27202 -0.0477905 -0.4584
                CHANNELS 3 Zrotation Xrotation Yrotation
                JOINT rPinky2
                {
                  OFFSET -1.82734 -0.647385 -0.700984
                  CHANNELS 3 Zrotation Xrotation Yrotation
                  End Site
                  {
                    OFFSET -1.69225 -0.51767 -0.607171
                  }
                }
              }
            }
          }
        }
      }
      JOINT lCollar
      {
        OFFSET 2.68224 19.2634 -4.8768
        CHANNELS 3 Zrotation Xrotation Yrotation
        JOINT lShldr
        {
          OFFSET 8.77824 -1.95073 1.46304
          CHANNELS 3 Zrotation Xrotation Yrotation
          JOINT lForeArm
          {
            OFFSET 28.1742 -1.7115 0.48768
            CHANNELS 3 Zrotation Xrotation Yrotation
            JOINT lHand
            {
              OFFSET 22.5879 0.773209 7.07136
              CHANNELS 3 Zrotation Xrotation Yrotation
              JOINT lThumb1
              {
                OFFSET 1.2192 -0.487915 3.41376
                CHANNELS 3 Zrotation Xrotation Yrotation
                JOINT lThumb2
                {
                  OFFSET 3.37035 -0.52449 3.41376
                  CHANNELS 3 Zrotation Xrotation Yrotation
                  End Site
                  {
                    OFFSET 1.78271 -1.18214 1.43049
                  }
                }
              }
              JOINT lIndex1
              {
                OFFSET 7.75947 0.938293 5.60832
                CHANNELS 3 Zrotation Xrotation Yrotation
                JOINT lIndex2
                {
                  OFFSET 2.54057 -0.884171 1.56538
                  CHANNELS 3 Zrotation Xrotation Yrotation
                  End Site
                  {
                    OFFSET 1.62519 -0.234802 1.16502
                  }
                }
              }
              JOINT lMid1
              {
                OFFSET 8.24714 1.18213 3.41376
                CHANNELS 3 Zrotation Xrotation Yrotation
                JOINT lMid2
                {
                  OFFSET 3.10165 -0.590103 1.0647
                  CHANNELS 3 Zrotation Xrotation Yrotation
                  End Site
                  {
                    OFFSET 2.48547 -0.328903 0.83742
                  }
                }
              }
              JOINT lRing1
              {
                OFFSET 8.82822 0.546677 1.51678
                CHANNELS 3 Zrotation Xrotation Yrotation
                JOINT lRing2
                {
                  OFFSET 2.60934 -0.819778 -0.0198488
                  CHANNELS 3 Zrotation Xrotation Yrotation
                  End Site
                  {
                    OFFSET 2.33842 -0.294052 0.168128
                  }
                }
              }
              JOINT lPinky1
              {
                OFFSET 8.27202 -0.0477905 -0.4584
                CHANNELS 3 Zrotation Xrotation Yrotation
                JOINT lPinky2
                {
                  OFFSET 1.82734 -0.647385 -0.700984
                  CHANNELS 3 Zrotation Xrotation Yrotation
                  End Site
                  {
                    OFFSET 1.69225 -0.51767 -0.607171
                  }
                }
              }
            }
          }
        }
      }
    }
  }
  JOINT rButtock
  {
    OFFSET -8.77824 4.35084 1.2192
    CHANNELS 3 Zrotation Xrotation Yrotation
    JOINT rThigh
    {
      OFFSET 0 -1.70687 -2.19456
      CHANNELS 3 Zrotation Xrotation Yrotation
      JOINT rShin
      {
        OFFSET 0 -36.8199 0.73152
        CHANNELS 3 Zrotation Xrotation Yrotation
        JOINT rFoot
        {
          OFFSET 0.73152 -45.1104 -5.12064
          CHANNELS 3 Zrotation Xrotation Yrotation
          End Site
          {
            OFFSET -1.1221 -3.69964 12.103
          }
        }
      }
    }
  }
  JOINT lButtock
  {
    OFFSET 8.77824 4.35084 1.2192
    CHANNELS 3 Zrotation Xrotation Yrotation
    JOINT lThigh
    {
      OFFSET 0 -1.70687 -2.19456
      CHANNELS 3 Zrotation Xrotation Yrotation
      JOINT lShin
      {
        OFFSET 0 -36.8199 0.73152
        CHANNELS 3 Zrotation Xrotation Yrotation
        JOINT lFoot
        {
          OFFSET -0.73152 -45.1104 -5.12064
          CHANNELS 3 Zrotation Xrotation Yrotation
          End Site
          {
            OFFSET 1.1221 -3.69964 12.103
          }
        }
      }
    }
  }
}
MOTION
Frames:	7
Frame Time:	0.00833333
-9.84479 83.5625 31.4919 0.0 0.0 0.0 0.569012 -0.00295247 0.0162653 0.157041 -0.00456254 0.0272098 8.37704e-15 -7.95139e-16 -1.36664e-16 2.53171e-14 9.54166e-15 -3.96016e-16 -0.0 0.0 0.0 -0.0 0.0 0.0 4.27262e-15 -1.0871e-17 9.93923e-17 9.18389e-14 -1.05604e-16 1.98785e-16 1.53382e-12 -4.62771e-13 -9.54166e-15 1.75816e-11 4.33972e-13 -2.63986e-13 4.14677e-11 -6.46736e-14 -5.82042e-13 7.1607e-11 -1.145e-13 -1.01937e-12 4.14752e-11 -6.20208e-14 -5.88403e-13 7.73091 5.47488 0.417314 4.1468e-11 -6.41081e-14 -5.85222e-13 2.90554 0.965183 0.102902 4.14777e-11 -6.44062e-14 -5.87607e-13 10.2786 0.731801 0.0259123 4.14639e-11 -6.48038e-14 -5.85222e-13 2.22167 -0.733487 -0.20892 4.176e-15 -1.04828e-17 -1.98785e-16 8.63233e-14 -2.11209e-16 -1.98785e-15 1.53417e-12 4.53627e-13 -6.67917e-14 1.75645e-11 -4.87793e-13 -2.00375e-13 4.14392e-11 -7.27678e-14 -6.01125e-13 7.15712e-11 -1.27222e-13 -1.02175e-12 4.14339e-11 -7.11649e-14 -5.91583e-13 -7.73091 5.47488 -0.417314 4.14381e-11 -7.28546e-14 -6.01125e-13 -2.90554 0.965183 -0.102902 4.14311e-11 -7.28546e-14 -5.93173e-13 -10.2786 0.731801 -0.0259123 4.14363e-11 -7.43455e-14 -5.94764e-13 -2.22167 -0.733487 0.20892 -2.03217e-16 0.0 -3.88251e-19 0.928505 -4.52918 -0.0776688 -0.00199883 2.65217 -0.00873321 -0.500751 1.87722 0.0953199 2.03217e-16 0.0 3.88251e-19 -0.0624176 -2.33914 0.02215 0.00810097 -1.31476 0.0693808 0.493103 3.65401 -0.130514
-14.5238 81.2723 24.689 -171.034 -78.7316 172.894 0.804655 6.04877 -2.96925 -0.406016 -1.21943 -0.884758 2.2073 4.47753 2.38982 -3.96469 -7.15287 3.88407 -0.0 0.0 0.0 -0.0 0.0 0.0 1.48141e-14 -3.52035e-14 6.12133e-14 18.7761 0.571754 -3.76636 -20.5564 -18.3427 15.1477 0.224634 -10.5474 -1.39325 1.47131e-10 -1.52926e-09 4.30601e-10 2.41597e-10 -2.6515e-09 7.45887e-10 1.47138e-10 -1.52926e-09 4.30595e-10 7.73091 5.47488 0.417314 1.47132e-10 -1.52926e-09 4.30599e-10 2.90554 0.965183 0.102902 1.47141e-10 -1.52926e-09 4.30597e-10 10.2786 0.731801 0.0259123 1.47127e-10 -1.52926e-09 4.30601e-10 2.22167 -0.733487 -0.20892 1.46575e-14 -3.52039e-14 6.09027e-14 -18.716 7.06206 0.0378521 15.5291 -12.816 -14.676 -0.0134311 -2.57119 0.360044 1.06498e-10 1.61153e-10 -7.21156e-10 1.89407e-10 2.79404e-10 -1.2452e-09 1.06488e-10 1.61153e-10 -7.21142e-10 -7.73091 5.47488 -0.417314 1.06497e-10 1.61154e-10 -7.21156e-10 -2.90554 0.965183 -0.102902 1.0649e-10 1.61154e-10 -7.21151e-10 -10.2786 0.731801 -0.0259123 1.06497e-10 1.61155e-10 -7.21151e-10 -2.22167 -0.733487 0.20892 -2.03217e-16 0.0 -3.88251e-19 3.32668 -12.3485 1.45817 0.0264308 15.0292 0.191297 -0.639139 -2.8936 -0.835272 2.03217e-16 0.0 3.88251e-19 1.23983 -12.545 2.5975 0.00144445 14.602 -0.141769 -0.06027 2.27242 -4.3834
-14.0236 81.1825 24.4991 -167.491 -79.5053 169.748 1.74731 12.385 -6.22474 -1.06431 -2.50048 -1.84776 4.1252 9.16557 4.964 -7.0571 -14.5804 8.19575 -0.0 0.0 0.0 -0.0 0.0 0.0 2.65106e-14 -7.50582e-14 1.29135e-13 38.7124 1.1609 -7.76318 -30.5494 -33.2061 36.1053 -0.133978 -21.6689 -3.03129 2.59488e-10 -3.2077e-09 9.03351e-10 4.2195e-10 -5.56125e-09 1.5647e-09 2.59494e-10 -3.2077e-09 9.03345e-10 7.73091 5.47488 0.417314 2.59489e-10 -3.20771e-09 9.0335e-10 2.90554 0.965183 0.102902 2.59497e-10 -3.2077e-09 9.03348e-10 10.2786 0.731801 0.0259123 2.59484e-10 -3.2077e-09 9.03354e-10 2.22167 -0.733487 -0.20892 2.62871e-14 -7.50592e-14 1.28812e-13 -38.5983 14.5193 0.190003 24.5604 -23.415 -32.3572 0.00764081 -5.28803 0.742947 1.76552e-10 3.38448e-10 -1.51312e-09 3.1641e-10 5.86804e-10 -2.61269e-09 1.76537e-10 3.38447e-10 -1.5131e-09 -7.73091 5.47488 -0.417314 1.76551e-10 3.38449e-10 -1.51312e-09 -2.90554 0.965183 -0.102902 1.76544e-10 3.38449e-10 -1.51312e-09 -10.2786 0.731801 -0.0259123 1.76552e-10 3.38454e-10 -1.51311e-09 -2.22167 -0.733487 0.20892 -2.03217e-16 0.0 -3.88251e-19 6.3461 -20.5868 3.26117 -0.0491661 28.1736 0.442971 -0.964964 -7.96824 -1.86868 2.03217e-16 0.0 3.88251e-19 3.67711 -23.2328 5.65084 0.138814 31.3779 -0.41612 -0.860053 0.864563 -8.89229
-13.4818 81.1778 24.3907 -164.037 -80.4675 166.882 3.24131 17.9505 -9.34954 -1.6483 -3.64553 -2.71359 5.47823 13.3378 7.34679 -8.8315 -21.0501 12.4008 -0.0 0.0 0.0 -0.0 0.0 0.0 3.58969e-14 -1.05589e-13 1.83441e-13 56.5524 1.68565 -11.3035 -29.9733 -37.7072 59.6981 -1.09006 -31.5604 -4.82398 3.58458e-10 -4.58765e-09 1.29297e-09 5.81576e-10 -7.95428e-09 2.2397e-09 3.58463e-10 -4.58766e-09 1.29296e-09 7.73091 5.47488 0.417314 3.58459e-10 -4.58766e-09 1.29297e-09 2.90554 0.965183 0.102902 3.58467e-10 -4.58765e-09 1.29297e-09 10.2786 0.731801 0.0259123 3.58453e-10 -4.58765e-09 1.29297e-09 2.22167 -0.733487 -0.20892 3.56206e-14 -1.05591e-13 1.83106e-13 -56.1777 21.1861 0.120864 27.0856 -27.8959 -50.3836 0.0573976 -7.71236 1.0889 2.36616e-10 4.83605e-10 -2.16227e-09 4.25079e-10 8.38466e-10 -3.73355e-09 2.36597e-10 4.83602e-10 -2.16224e-09 -7.73091 5.47488 -0.417314 2.36615e-10 4.83607e-10 -2.16227e-09 -2.90554 0.965183 -0.102902 2.36607e-10 4.83607e-10 -2.16227e-09 -10.2786 0.731801 -0.0259123 2.36617e-10 4.83614e-10 -2.16226e-09 -2.22167 -0.733487 0.20892 -2.03217e-16 0.0 -3.88251e-19 9.52573 -27.9078 5.01229 -0.243117 39.7812 0.743941 -1.38933 -12.4222 -2.75777 2.03217e-16 0.0 3.88251e-19 7.03611 -32.6711 8.99424 0.462652 46.4329 -0.798463 -1.77776 -0.458973 -12.8798
-12.9852 81.2896 24.2914 -160.721 -81.1601 164.142 4.71753 21.7769 -11.764 -1.96535 -4.45399 -3.33188 6.22507 16.3097 9.08615 -9.50932 -25.5105 15.6381 -0.0 0.0 0.0 -0.0 0.0 0.0 3.95075e-14 -1.1281e-13 2.03705e-13 68.9973 2.07729 -13.6984 -28.4158 -34.667 74.7954 -2.23678 -38.453 -6.40773 4.23962e-10 -5.22137e-09 1.47475e-09 6.89381e-10 -9.05553e-09 2.5552e-09 4.23966e-10 -5.22137e-09 1.47475e-09 7.73091 5.47488 0.417314 4.23962e-10 -5.22138e-09 1.47475e-09 2.90554 0.965183 0.102902 4.2397e-10 -5.22137e-09 1.47475e-09 10.2786 0.731801 0.0259123 4.23957e-10 -5.22137e-09 1.47476e-09 2.22167 -0.733487 -0.20892 3.92138e-14 -1.12812e-13 2.03357e-13 -67.8336 25.8757 -0.558571 27.2995 -27.3952 -63.1024 0.109769 -9.4066 1.33414 2.71704e-10 5.48417e-10 -2.45438e-09 4.87915e-10 9.50782e-10 -4.23786e-09 2.71683e-10 5.48414e-10 -2.45435e-09 -7.73091 5.47488 -0.417314 2.71704e-10 5.48419e-10 -2.45438e-09 -2.90554 0.965183 -0.102902 2.71695e-10 5.4842e-10 -2.45438e-09 -10.2786 0.731801 -0.0259123 2.71706e-10 5.48427e-10 -2.45438e-09 -2.22167 -0.733487 0.20892 -2.03217e-16 0.0 -3.88251e-19 12.0066 -33.0183 6.17097 -0.477845 47.5492 1.02475 -1.68941 -15.34 -3.21564 2.03217e-16 0.0 3.88251e-19 10.3432 -39.2465 11.9407 0.92656 57.1878 -1.2692 -2.59028 -1.6102 -15.5657
-12.5465 81.5115 24.1989 -158.187 -81.6099 162.069 5.49198 23.338 -12.901 -1.86165 -4.79487 -3.59982 6.50526 17.6742 9.80514 -9.77806 -27.4646 16.9949 -0.0 0.0 0.0 -0.0 0.0 0.0 4.06008e-14 -1.09978e-13 1.71766e-13 73.8159 2.30633 -14.4906 -28.3221 -32.2703 79.5145 -2.8406 -41.2266 -7.15853 4.05971e-10 -4.63918e-09 1.31647e-09 6.62915e-10 -8.04837e-09 2.28148e-09 4.05974e-10 -4.63918e-09 1.31647e-09 7.73091 5.47488 0.417314 4.05971e-10 -4.63918e-09 1.31647e-09 2.90554 0.965183 0.102902 4.05979e-10 -4.63918e-09 1.31647e-09 10.2786 0.731801 0.0259123 4.05966e-10 -4.63918e-09 1.31648e-09 2.22167 -0.733487 -0.20892 4.03469e-14 -1.09982e-13 1.714e-13 -71.1808 27.834 -2.08774 27.4494 -26.575 -68.2132 0.135339 -10.1074 1.43657 2.52326e-10 4.81563e-10 -2.2003e-09 4.52541e-10 8.34825e-10 -3.79901e-09 2.52309e-10 4.81561e-10 -2.20028e-09 -7.73091 5.47488 -0.417314 2.52327e-10 4.81565e-10 -2.2003e-09 -2.90554 0.965183 -0.102902 2.52317e-10 4.81565e-10 -2.2003e-09 -10.2786 0.731801 -0.0259123 2.5233e-10 4.8157e-10 -2.2003e-09 -2.22167 -0.733487 0.20892 -2.03217e-16 0.0 -3.88251e-19 12.9113 -35.0752 6.12761 -0.578816 49.9378 1.13043 -1.64418 -16.1099 -2.99986 2.03217e-16 0.0 3.88251e-19 12.1674 -42.1161 13.344 1.24928 61.9071 -1.58 -3.14203 -2.69247 -16.559
-12.1196 81.7997 24.1354 -156.024 -82.0735 160.344 5.58505 23.3257 -13.0365 -1.44906 -4.80244 -3.61654 6.54877 17.9104 9.75753 -10.046 -27.7208 16.8438 -0.0 0.0 0.0 -0.0 0.0 0.0 3.96308e-14 -9.88916e-14 1.02756e-13 73.1693 2.42506 -14.1368 -28.3098 -32.4818 78.8707 -2.79681 -41.0815 -7.1127 3.30086e-10 -3.19663e-09 9.17628e-10 5.43479e-10 -5.54948e-09 1.59097e-09 3.30088e-10 -3.19663e-09 9.17618e-10 7.73091 5.47488 0.417314 3.30085e-10 -3.19663e-09 9.17628e-10 2.90554 0.965183 0.102902 3.30094e-10 -3.19663e-09 9.17625e-10 10.2786 0.731801 0.0259123 3.3008e-10 -3.19663e-09 9.17628e-10 2.22167 -0.733487 -0.20892 3.94571e-14 -9.88978e-14 1.02368e-13 -68.6539 27.8158 -4.19713 27.5602 -27.2124 -68.61 0.134265 -10.0976 1.43505 1.94974e-10 3.21576e-10 -1.55829e-09 3.48639e-10 5.57397e-10 -2.69028e-09 1.94962e-10 3.21575e-10 -1.55828e-09 -7.73091 5.47488 -0.417314 1.94974e-10 3.21577e-10 -1.5583e-09 -2.90554 0.965183 -0.102902 1.94963e-10 3.21577e-10 -1.5583e-09 -10.2786 0.731801 -0.0259123 1.94978e-10 3.21578e-10 -1.5583e-09 -2.22167 -0.733487 0.20892 -2.03217e-16 0.0 -3.88251e-19 12.5654 -34.9579 5.13648 -0.526823 48.4849 1.06115 -1.34349 -15.3451 -2.29807 2.03217e-16 0.0 3.88251e-19 12.465 -42.4166 13.285 1.28003 62.318 -1.59782 -3.44319 -3.73742 -16.3367
